<svg xmlns="http://www.w3.org/2000/svg" width="67.201" height="64.686" viewBox="0 0 67.201 64.686">
  <path id="Icon_awesome-crown" data-name="Icon awesome-crown" d="M41.777,30.612,7.169,33.375a1.554,1.554,0,0,0-1.437,1.271l-.213,2.33a1.029,1.029,0,0,0,1.225,1.059l34.608-2.763A1.554,1.554,0,0,0,42.79,34L43,31.671A1.029,1.029,0,0,0,41.777,30.612ZM49.227,6.886A4.648,4.648,0,0,0,44.915,10.7a2.765,2.765,0,0,0,.235,1.413l-6.311,3.641a2.636,2.636,0,0,1-3.6-.551L29.4,5.36a4.093,4.093,0,0,0,1.718-2.812C31.3.619,29.653-.8,27.448-.628a4.648,4.648,0,0,0-4.312,3.814,2.747,2.747,0,0,0,1.227,2.577L16.636,16.687a3.193,3.193,0,0,1-3.754,1.138l-5.727-2.68a3.6,3.6,0,0,0,.5-1.471c.176-1.93-1.47-3.352-3.675-3.176a4.658,4.658,0,0,0-4.32,3.815c-.176,1.93,1.47,3.352,3.675,3.176a4.937,4.937,0,0,0,.646-.109L8.713,30.938l31.946-2.55,7.3-14.519a4.5,4.5,0,0,0,.635.007A4.648,4.648,0,0,0,52.9,10.062C53.077,8.133,51.432,6.71,49.227,6.886Z" transform="matrix(0.788, 0.616, -0.616, 0.788, 24.403, 1.43)" fill="#c2aa71" stroke="#000" stroke-width="1"/>
</svg>
